<?xml version="1.0" encoding="UTF-8"?>
<svg width="42.333mm" height="42.333mm" clip-rule="evenodd" fill-rule="evenodd" image-rendering="optimizeQuality" shape-rendering="geometricPrecision" text-rendering="geometricPrecision" version="1.1" viewBox="0 0 4233.3 4233.3" xml:space="preserve" xmlns="http://www.w3.org/2000/svg">
 <defs>
  <style type="text/css">
   <![CDATA[
    .fil0 {fill:#F59B19}
   ]]>
  </style>
 </defs>
 
  
  
   <path class="fil0" d="m1135.7 1917.3c299.43-516.59 595.29-1027 894.16-1543.9v517.13l86.79-173.03 86.69 173.42-0.01-517.52c292.42 505.71 624.68 1031.7 894.66 1543.9l359.74 167.88-786.51-1363.4-420.19-721.77h-269.7l-1205.8 2085.2c30.02-13.53 360.15-167.59 360.15-167.88z"/>
   <path class="fil0" d="m1713.3 1696.9-904.81 419.78 891.61 403.79 91.98 204.33 324.54 720.13 424.27-922.66 885.36-405.62-901.46-411.54-408.16-910.47-403.33 902.26zm-334.2 419.75 512.99-236.09 224.54-516.87 237.63 521.61 505.05 231.35-505.92 223.86-236.76 512.44-244.6-508.05-492.93-228.25z"/>
   <polygon class="fil0" points="1987.6 2036.2 1674.9 2036.2 1487.5 2116.6 1674.9 2209.7 1987.6 2209.6"/>
   <polygon class="fil0" points="1876.5 1993.9 1987.6 1993.9 1987.6 1882.7 1911 1917.3"/>
   <polygon class="fil0" points="1987.6 2252 1876.5 2252 1904 2312.9 1987.6 2350.6"/>
   <polygon class="fil0" points="2030 1993.9 2203.3 1993.9 2203.3 1653.4 2116.6 1468.3 2029.9 1653.5 2030 1817.2"/>
   <polygon class="fil0" points="2245.7 1882.7 2245.7 1993.9 2356.9 1993.9 2322.3 1917.3"/>
   <polygon class="fil0" points="2356.9 2252 2245.7 2252 2245.7 2350.6 2329.4 2312.9"/>
   <polygon class="fil0" points="2245.7 2209.6 2558.5 2209.6 2767.1 2116.6 2558.5 2036.2 2245.7 2036.2"/>
   <polygon class="fil0" points="2203.4 2592.4 2203.3 2252 2030 2252 2030 2592.4 2116.6 2772.4"/>
   <path class="fil0" d="m1726 3333.3c-15.02-26.04-584.79-1018.1-590.26-1020.4l-360.15-164.72 1206.7 2085.2h269.71l1205.8-2085.2-359.74 164.72c-298.87 516.82-595.7 1030.2-894.58 1547l-0.08-504.58-86.68 171.84-86.74-171.84v504.58l-303.95-526.56z"/>
   <polygon class="fil0" points="1487.5 2857.1 1716.2 3254.6 1987.7 3404.1 1987.7 3254.6 1913.3 3096.6"/>
   <polygon class="fil0" points="2320 3096.6 2245.7 3254.6 2245.7 3404.1 2515.5 3254.6 2747.4 2857.1"/>
   <polygon class="fil0" points="3278.7 2542.2 3048.5 2939.8 4227.1 2257.3 4227.1 1987.6 3060.3 1313.2 3289.4 1709.8 3852.4 2036.2 3478.2 2036.1 3525.4 2116.6 3478.2 2209.6 3852.4 2209.6"/>
   <polygon class="fil0" points="379.61 2036.2 943.17 1710.8 1173.1 1313.2 6.21 1988.5 6.21 2258.2 1184.8 2939.8 954.72 2542.2 379.61 2209.6 762.29 2209.6 708.49 2116.7 762.29 2036.2"/>
   <polygon class="fil0" points="1707.7 988.56 1473.3 1395.8 1913.2 1149.4 1987.6 998.24 1987.6 841.87"/>
   <polygon class="fil0" points="2245.7 998.24 2320.3 1149.4 2772 1395.8 2538.4 998.24 2245.7 841.77"/>
  
 
</svg>
